<svg width="372" height="233" viewBox="0 0 372 233" fill="none" xmlns="http://www.w3.org/2000/svg">
<g clip-path="url(#clip0_2189_11048)">
<path d="M-155.527 250.796H-78.5151C-6.23553 250.796 60.9713 213.649 99.4225 152.446C137.325 92.1164 203.572 55.5 274.82 55.5H287.224C414.018 55.5 516.805 158.287 516.805 285.081V324.5C516.805 473.065 396.369 593.5 247.805 593.5H-155.527C-305.861 593.5 -383.322 413.721 -280.067 304.457C-247.699 270.205 -202.653 250.796 -155.527 250.796Z" fill="url(#paint0_linear_2189_11048)" fill-opacity="0.3" stroke="#8CCFFF" stroke-width="3"/>
<path d="M126 -38L126 274" stroke="#F5F9FF" stroke-width="3" stroke-linecap="round"/>
<g filter="url(#filter0_d_2189_11048)">
<circle cx="127.055" cy="117.75" r="6.75" fill="#0870FF"/>
<circle cx="127.055" cy="117.75" r="8.25" stroke="white" stroke-width="3"/>
</g>
<g filter="url(#filter1_d_2189_11048)">
<g clip-path="url(#clip1_2189_11048)">
<rect x="158.305" y="60" width="111" height="81" rx="8" fill="white"/>
<path d="M175.616 85L179.096 74.8145H181.83L185.398 85H183.081L182.295 82.6348H178.679L177.92 85H175.616ZM179.198 81.001H181.755L181.447 80.085C181.283 79.5654 181.119 79.0026 180.955 78.3965C180.791 77.7904 180.62 77.141 180.442 76.4482C180.274 77.1501 180.112 77.804 179.957 78.4102C179.802 79.0163 179.647 79.5745 179.492 80.085L179.198 81.001ZM186.615 87.8574V77.3574H188.632V78.6426H188.728C188.819 78.4421 188.951 78.2347 189.124 78.0205C189.302 77.8063 189.534 77.6263 189.821 77.4805C190.113 77.3346 190.475 77.2617 190.908 77.2617C191.473 77.2617 191.991 77.4076 192.46 77.6992C192.929 77.9909 193.303 78.4284 193.581 79.0117C193.864 79.5951 194.005 80.3219 194.005 81.1924C194.005 82.04 193.868 82.7578 193.595 83.3457C193.321 83.929 192.95 84.3734 192.48 84.6787C192.011 84.9795 191.482 85.1299 190.895 85.1299C190.48 85.1299 190.129 85.0592 189.842 84.918C189.555 84.7767 189.32 84.6035 189.138 84.3984C188.96 84.1888 188.823 83.9814 188.728 83.7764H188.666V87.8574H186.615ZM190.266 83.4824C190.799 83.4824 191.204 83.2682 191.482 82.8398C191.765 82.4115 191.906 81.86 191.906 81.1855C191.906 80.5156 191.767 79.9688 191.489 79.5449C191.211 79.1165 190.803 78.9023 190.266 78.9023C189.737 78.9023 189.329 79.1097 189.042 79.5244C188.759 79.9391 188.618 80.4928 188.618 81.1855C188.618 81.8783 188.762 82.4342 189.049 82.8535C189.336 83.2728 189.742 83.4824 190.266 83.4824ZM195.447 85V77.3574H197.43V78.6904H197.512C197.653 78.221 197.888 77.8656 198.216 77.624C198.549 77.3779 198.929 77.2549 199.357 77.2549C199.59 77.2549 199.811 77.2777 200.021 77.3232V79.1553C199.929 79.1279 199.795 79.1051 199.617 79.0869C199.444 79.0641 199.282 79.0527 199.132 79.0527C198.658 79.0527 198.266 79.2008 197.956 79.4971C197.651 79.7933 197.498 80.1784 197.498 80.6523V85H195.447ZM201.258 85V77.3574H203.309V85H201.258ZM202.283 76.3594C201.973 76.3594 201.709 76.2568 201.49 76.0518C201.271 75.8467 201.162 75.5983 201.162 75.3066C201.162 75.015 201.271 74.7666 201.49 74.5615C201.709 74.3564 201.973 74.2539 202.283 74.2539C202.593 74.2539 202.857 74.3564 203.076 74.5615C203.299 74.7666 203.411 75.015 203.411 75.3066C203.411 75.5983 203.299 75.8467 203.076 76.0518C202.857 76.2568 202.593 76.3594 202.283 76.3594ZM207.109 74.8145V85H205.059V74.8145H207.109ZM216.427 74.8145V85H214.342V76.6533H214.273L211.942 78.3008V76.3936L214.191 74.8145H216.427ZM221.889 85.1367C221.191 85.1367 220.569 85.0091 220.022 84.7539C219.476 84.4941 219.043 84.1387 218.724 83.6875C218.409 83.2363 218.245 82.7214 218.231 82.1426H220.262C220.28 82.5391 220.446 82.8626 220.761 83.1133C221.075 83.3594 221.451 83.4824 221.889 83.4824C222.399 83.4824 222.816 83.3138 223.14 82.9766C223.468 82.6393 223.632 82.2018 223.632 81.6641C223.632 81.1217 223.465 80.6797 223.133 80.3379C222.8 79.9915 222.372 79.8184 221.848 79.8184C221.542 79.8184 221.248 79.8799 220.966 80.0029C220.688 80.126 220.471 80.2878 220.316 80.4883L218.443 80.1602L218.936 74.8145H225.095V76.5371H220.665L220.398 79.1143H220.453C220.635 78.8682 220.904 78.6654 221.26 78.5059C221.62 78.3464 222.021 78.2666 222.463 78.2666C223.074 78.2666 223.62 78.4102 224.104 78.6973C224.587 78.9844 224.965 79.3809 225.238 79.8867C225.516 80.388 225.655 80.9645 225.655 81.6162C225.655 82.2998 225.496 82.9059 225.177 83.4346C224.862 83.9632 224.423 84.3802 223.857 84.6855C223.292 84.9863 222.636 85.1367 221.889 85.1367Z" fill="#2D2E32"/>
<rect x="158.305" y="100" width="111" height="1" fill="#CDCED4"/>
<g filter="url(#filter2_d_2189_11048)">
<circle cx="178.805" cy="121" r="4.5" fill="#0870FF"/>
<circle cx="178.805" cy="121" r="5.5" stroke="white" stroke-width="2"/>
</g>
<path d="M195.44 127.449V126.157C194.415 126.089 193.602 125.793 193 125.269C192.398 124.744 192.075 124.045 192.029 123.17H193.595C193.636 123.662 193.829 124.04 194.176 124.305C194.522 124.569 194.944 124.729 195.44 124.783V121.44L194.962 121.304C194.128 121.08 193.476 120.75 193.007 120.312C192.542 119.875 192.31 119.308 192.31 118.61C192.31 118.068 192.444 117.59 192.713 117.175C192.986 116.76 193.358 116.425 193.827 116.17C194.297 115.915 194.834 115.757 195.44 115.698V114.365H196.261V115.691C196.894 115.732 197.45 115.878 197.929 116.129C198.407 116.38 198.783 116.71 199.057 117.12C199.33 117.526 199.474 117.984 199.487 118.494H197.97C197.924 118.079 197.746 117.749 197.437 117.503C197.131 117.252 196.739 117.1 196.261 117.045V120.196L196.691 120.312C197.015 120.395 197.348 120.506 197.689 120.647C198.036 120.784 198.355 120.964 198.646 121.188C198.938 121.406 199.173 121.68 199.351 122.008C199.533 122.331 199.624 122.723 199.624 123.184C199.624 123.999 199.33 124.683 198.742 125.234C198.159 125.781 197.332 126.089 196.261 126.157V127.449H195.44ZM196.261 124.783C196.799 124.719 197.236 124.544 197.573 124.257C197.915 123.965 198.086 123.601 198.086 123.163C198.086 122.735 197.91 122.413 197.56 122.199C197.213 121.985 196.78 121.805 196.261 121.659V124.783ZM195.44 119.978V117.059C194.953 117.127 194.568 117.293 194.285 117.558C194.007 117.822 193.868 118.143 193.868 118.521C193.868 118.809 193.948 119.048 194.107 119.239C194.267 119.426 194.467 119.579 194.709 119.697C194.951 119.811 195.194 119.905 195.44 119.978ZM205.072 126V124.872L208.531 121.297C209.06 120.741 209.461 120.269 209.734 119.882C210.008 119.494 210.145 119.077 210.145 118.631C210.145 118.12 209.971 117.719 209.625 117.428C209.283 117.132 208.855 116.983 208.34 116.983C207.798 116.983 207.365 117.147 207.041 117.476C206.717 117.799 206.556 118.234 206.556 118.781H205.059C205.059 118.161 205.202 117.619 205.489 117.154C205.776 116.685 206.168 116.323 206.665 116.067C207.166 115.808 207.734 115.678 208.367 115.678C209.014 115.678 209.582 115.805 210.069 116.061C210.562 116.316 210.947 116.662 211.225 117.1C211.503 117.533 211.642 118.025 211.642 118.576C211.642 118.945 211.571 119.31 211.43 119.67C211.293 120.025 211.049 120.426 210.698 120.873C210.352 121.32 209.862 121.862 209.229 122.5L207.232 124.585V124.667H211.799V126H205.072ZM214.027 126L218.457 117.229V117.147H213.33V115.814H220.091V117.202L215.661 126H214.027ZM225.396 115.814V126H223.851V117.229H223.782L221.362 118.993V117.428L223.591 115.814H225.396ZM230.721 126.144C230.115 126.144 229.575 126.023 229.101 125.781C228.627 125.54 228.239 125.207 227.938 124.783C227.642 124.359 227.458 123.874 227.385 123.327H228.93C229.025 123.751 229.224 124.1 229.524 124.373C229.83 124.642 230.229 124.776 230.721 124.776C231.464 124.776 232.042 124.453 232.457 123.806C232.872 123.159 233.079 122.256 233.079 121.099H233.004C232.744 121.522 232.393 121.86 231.951 122.11C231.509 122.356 231.019 122.479 230.481 122.479C229.889 122.479 229.351 122.336 228.868 122.049C228.385 121.762 228.002 121.368 227.72 120.866C227.437 120.36 227.296 119.784 227.296 119.137C227.296 118.485 227.444 117.897 227.74 117.373C228.036 116.844 228.451 116.427 228.984 116.122C229.522 115.812 230.149 115.662 230.864 115.671C231.315 115.68 231.76 115.764 232.197 115.924C232.635 116.083 233.034 116.35 233.394 116.724C233.754 117.093 234.041 117.59 234.255 118.214C234.469 118.838 234.576 119.62 234.576 120.559C234.576 121.739 234.419 122.746 234.104 123.58C233.79 124.41 233.343 125.045 232.765 125.487C232.19 125.925 231.509 126.144 230.721 126.144ZM230.816 121.215C231.204 121.215 231.552 121.117 231.862 120.921C232.177 120.72 232.425 120.461 232.607 120.142C232.794 119.818 232.888 119.467 232.888 119.089C232.888 118.72 232.799 118.376 232.621 118.057C232.443 117.738 232.202 117.48 231.896 117.284C231.591 117.088 231.243 116.99 230.851 116.99C230.468 116.99 230.121 117.086 229.812 117.277C229.506 117.464 229.265 117.719 229.087 118.043C228.909 118.362 228.82 118.717 228.82 119.109C228.82 119.506 228.905 119.864 229.073 120.183C229.246 120.497 229.483 120.748 229.784 120.935C230.09 121.121 230.434 121.215 230.816 121.215ZM237.085 126.103C236.802 126.103 236.563 126.007 236.367 125.815C236.171 125.619 236.073 125.38 236.073 125.098C236.073 124.815 236.171 124.576 236.367 124.38C236.563 124.184 236.802 124.086 237.085 124.086C237.368 124.086 237.604 124.184 237.796 124.38C237.992 124.576 238.09 124.815 238.09 125.098C238.09 125.38 237.992 125.619 237.796 125.815C237.604 126.007 237.368 126.103 237.085 126.103ZM242.663 115.814V126H241.118V117.229H241.05L238.63 118.993V117.428L240.858 115.814H242.663ZM244.57 124.018V122.76L248.959 115.814H250.887V122.691H252.227V124.018H250.887V126H249.39V124.018H244.57ZM249.403 122.691V117.667H249.321L246.197 122.609V122.691H249.403Z" fill="#2D2E32"/>
</g>
</g>
</g>
<defs>
<filter id="filter0_d_2189_11048" x="114.305" y="106.5" width="25.5" height="25.5" filterUnits="userSpaceOnUse" color-interpolation-filters="sRGB">
<feFlood flood-opacity="0" result="BackgroundImageFix"/>
<feColorMatrix in="SourceAlpha" type="matrix" values="0 0 0 0 0 0 0 0 0 0 0 0 0 0 0 0 0 0 127 0" result="hardAlpha"/>
<feOffset dy="1.5"/>
<feGaussianBlur stdDeviation="1.5"/>
<feComposite in2="hardAlpha" operator="out"/>
<feColorMatrix type="matrix" values="0 0 0 0 0 0 0 0 0 0 0 0 0 0 0 0 0 0 0.15 0"/>
<feBlend mode="normal" in2="BackgroundImageFix" result="effect1_dropShadow_2189_11048"/>
<feBlend mode="normal" in="SourceGraphic" in2="effect1_dropShadow_2189_11048" result="shape"/>
</filter>
<filter id="filter1_d_2189_11048" x="134.305" y="40" width="159" height="129" filterUnits="userSpaceOnUse" color-interpolation-filters="sRGB">
<feFlood flood-opacity="0" result="BackgroundImageFix"/>
<feColorMatrix in="SourceAlpha" type="matrix" values="0 0 0 0 0 0 0 0 0 0 0 0 0 0 0 0 0 0 127 0" result="hardAlpha"/>
<feMorphology radius="4" operator="erode" in="SourceAlpha" result="effect1_dropShadow_2189_11048"/>
<feOffset dy="4"/>
<feGaussianBlur stdDeviation="14"/>
<feColorMatrix type="matrix" values="0 0 0 0 0 0 0 0 0 0.152229 0 0 0 0 0.374121 0 0 0 0.1 0"/>
<feBlend mode="normal" in2="BackgroundImageFix" result="effect1_dropShadow_2189_11048"/>
<feBlend mode="normal" in="SourceGraphic" in2="effect1_dropShadow_2189_11048" result="shape"/>
</filter>
<filter id="filter2_d_2189_11048" x="170.305" y="113.5" width="17" height="17" filterUnits="userSpaceOnUse" color-interpolation-filters="sRGB">
<feFlood flood-opacity="0" result="BackgroundImageFix"/>
<feColorMatrix in="SourceAlpha" type="matrix" values="0 0 0 0 0 0 0 0 0 0 0 0 0 0 0 0 0 0 127 0" result="hardAlpha"/>
<feOffset dy="1"/>
<feGaussianBlur stdDeviation="1"/>
<feComposite in2="hardAlpha" operator="out"/>
<feColorMatrix type="matrix" values="0 0 0 0 0 0 0 0 0 0 0 0 0 0 0 0 0 0 0.15 0"/>
<feBlend mode="normal" in2="BackgroundImageFix" result="effect1_dropShadow_2189_11048"/>
<feBlend mode="normal" in="SourceGraphic" in2="effect1_dropShadow_2189_11048" result="shape"/>
</filter>
<linearGradient id="paint0_linear_2189_11048" x1="101.619" y1="31.8178" x2="101.619" y2="289.994" gradientUnits="userSpaceOnUse">
<stop stop-color="#E6F4FF"/>
<stop offset="1" stop-color="#BAE2FF" stop-opacity="0"/>
</linearGradient>
<clipPath id="clip0_2189_11048">
<rect width="372" height="233" fill="white"/>
</clipPath>
<clipPath id="clip1_2189_11048">
<rect x="158.305" y="60" width="111" height="81" rx="8" fill="white"/>
</clipPath>
</defs>
</svg>
